<svg xmlns="http://www.w3.org/2000/svg" width="17.187" height="18.891" viewBox="0 0 17.187 18.891">
  <g id="Group_12" data-name="Group 12" transform="translate(-917.802 -132)">
    <g id="Ellipse_2" data-name="Ellipse 2" transform="translate(921.896 132)" fill="none" stroke="#fff" stroke-width="1.5">
      <circle cx="4.5" cy="4.5" r="4.5" stroke="none"/>
      <circle cx="4.5" cy="4.5" r="3.75" fill="none"/>
    </g>
    <g id="Path_4" data-name="Path 4" transform="translate(917.802 142.758)" fill="none">
      <path d="M8.593.313c4.746,0,8.593,1.98,8.593,4.363V8.133H0V4.675C0,2.293,3.847.313,8.593.313Z" stroke="none"/>
      <path d="M 8.59326171875 1.812497615814209 C 6.565991401672363 1.812497615814209 4.599581718444824 2.222267627716064 3.19823169708252 2.936737537384033 C 2.150721549987793 3.470797538757324 1.500001907348633 4.136887550354004 1.500001907348633 4.675047874450684 L 1.500001907348633 6.632877826690674 L 15.68652153015137 6.632877826690674 L 15.68652153015137 4.675047874450684 C 15.68652153015137 4.136887550354004 15.03580188751221 3.470797538757324 13.98829174041748 2.936737537384033 C 12.58694171905518 2.222267627716064 10.62053108215332 1.812497615814209 8.59326171875 1.812497615814209 M 8.59326171875 0.3124980926513672 C 13.33919143676758 0.3124980926513672 17.18652153015137 2.292717933654785 17.18652153015137 4.675047874450684 C 17.18652153015137 5.670857429504395 17.18652153015137 8.132877349853516 17.18652153015137 8.132877349853516 C 17.18652153015137 8.132877349853516 11.35539150238037 8.132877349853516 8.59326171875 8.132877349853516 C 5.978251457214355 8.132877349853516 1.9073486328125e-06 8.132877349853516 1.9073486328125e-06 8.132877349853516 C 1.9073486328125e-06 8.132877349853516 1.9073486328125e-06 5.744708061218262 1.9073486328125e-06 4.675047874450684 C 1.9073486328125e-06 2.292717933654785 3.847332000732422 0.3124980926513672 8.59326171875 0.3124980926513672 Z" stroke="none" fill="#fff"/>
    </g>
  </g>
</svg>