<svg xmlns="http://www.w3.org/2000/svg" width="15.572" height="18.167" viewBox="0 0 15.572 18.167">
  <path id="Path_5" data-name="Path 5" d="M16.842,5.326h-1.73a4.326,4.326,0,1,0-8.651,0H4.73A1.735,1.735,0,0,0,3,7.056V17.437a1.735,1.735,0,0,0,1.73,1.73H16.842a1.735,1.735,0,0,0,1.73-1.73V7.056A1.735,1.735,0,0,0,16.842,5.326Zm-6.056-3.2a2.845,2.845,0,0,1,3.1,3.2H7.666A2.951,2.951,0,0,1,10.786,2.124Zm6.6,15.813H4.322V6.655H17.385Zm-6.6-6.75A3.14,3.14,0,0,1,7.541,7.921H6.461a4.326,4.326,0,1,0,8.651,0H14.041A3.105,3.105,0,0,1,10.786,11.187Z" transform="translate(-3 -1)" fill="#fff"/>
</svg>