<svg xmlns="http://www.w3.org/2000/svg" width="265.493" height="49.852" viewBox="0 0 265.493 49.852">
  <g id="Group_189" data-name="Group 189" transform="translate(9282.714 -7152.239)">
    <path id="Path_38" data-name="Path 38" d="M13.158-13.5v.351h-1.62v12.8h1.62V0H8.028V-.351h1.8V-6.48H3.9V-.351H5.688V0H.558V-.351h1.62v-12.8H.558V-13.5h5.13v.351H3.9V-6.84H9.828v-6.309h-1.8V-13.5ZM17.6-4.221v-.351h5.832v.351Zm3.4-9.54L25.65-.351h1.4V0h-5.22V-.351h1.845L20.142-11.3,16.326-.351h1.908V0h-3.96V-.351h1.647l4.716-13.41Zm9.378.261V-.351h2.124V0H28.17V-.351h1.845v-12.8H28.17V-13.5Zm10.6,0v.351h-1.9V.18H38.6L30.123-13.5h2.07L38.727-2.781V-13.149H36.648V-13.5Zm3.321,0V-.351h2.124V0H42.093V-.351h1.845v-12.8H42.093V-13.5Zm10.6,0v.351h-1.9V.18h-.486L44.046-13.5h2.07L52.65-2.781V-13.149H50.571V-13.5Zm4.437,9.279v-.351h5.832v.351Zm3.4-9.54L67.392-.351h1.4V0h-5.22V-.351h1.845L61.884-11.3,58.068-.351h1.908V0h-3.96V-.351h1.647l4.716-13.41Zm19.764.261v.351h-1.62v12.8h1.62V0h-5.13V-.351h1.8V-6.48H73.251V-.351h1.791V0h-5.13V-.351h1.62v-12.8h-1.62V-13.5h5.13v.351H73.251V-6.84h5.931v-6.309h-1.8V-13.5Zm18.432,0v.351H99.387L94.581.261h-.414L89.5-13.149H88.128V-13.5h5.22v.351H91.485L95.058-2.1l3.924-11.052H96.777V-13.5Zm4.446,9.279v-.351h5.832v.351Zm3.4-9.54,4.644,13.41h1.4V0h-5.22V-.351h1.845L107.928-11.3,104.112-.351h1.908V0h-3.96V-.351h1.647l4.716-13.41Zm9.378.261V-.351h2.124V0h-4.338V-.351H117.8v-12.8h-1.845V-13.5Zm10.6,0v.351h-1.9V.18h-.486L117.909-13.5h2.07l6.534,10.719V-13.149h-2.079V-13.5Zm10.647,0a6.5,6.5,0,0,1,3.451.887,5.981,5.981,0,0,1,2.241,2.417A7.421,7.421,0,0,1,145.9-6.75a7.435,7.435,0,0,1-.468,2.669A6.441,6.441,0,0,1,144.1-1.935a6.046,6.046,0,0,1-2.057,1.427A6.62,6.62,0,0,1,139.419,0h-5.04V-.351H136v-12.8h-1.62V-13.5Zm-1.7,13.149h1.7a3.855,3.855,0,0,0,2.088-.531,3.97,3.97,0,0,0,1.359-1.44,6.827,6.827,0,0,0,.738-2.056,12.3,12.3,0,0,0,.225-2.372,11.025,11.025,0,0,0-.252-2.372,7.044,7.044,0,0,0-.783-2.057,4.15,4.15,0,0,0-1.368-1.44,3.668,3.668,0,0,0-2.007-.531h-1.7ZM147.447,0V-.351h1.62v-12.8h-1.62V-13.5h9.6v3.69H156.7a5.016,5.016,0,0,0-.274-1.719,2.4,2.4,0,0,0-.9-1.188,2.906,2.906,0,0,0-1.678-.432h-3.06v12.8h2.871a3.566,3.566,0,0,0,1.935-.45,2.43,2.43,0,0,0,.994-1.278,5.931,5.931,0,0,0,.293-1.971h.351V0Zm6.192-5.013a1.939,1.939,0,0,0-.234-1,1.494,1.494,0,0,0-.635-.594,2.035,2.035,0,0,0-.913-.2h-1.5v-.351h1.5a2.206,2.206,0,0,0,.913-.18,1.413,1.413,0,0,0,.635-.558,1.841,1.841,0,0,0,.234-.981h.351v3.861Zm8.181-1.773v-.207h2.7a2.842,2.842,0,0,0,1.467-.356,2.3,2.3,0,0,0,.923-1.039,3.915,3.915,0,0,0,.32-1.665,3.977,3.977,0,0,0-.32-1.674,2.345,2.345,0,0,0-.923-1.057,2.786,2.786,0,0,0-1.467-.365h-5.94V-13.5h5.94a6.844,6.844,0,0,1,2.372.374,3.292,3.292,0,0,1,1.57,1.139,3.2,3.2,0,0,1,.558,1.935,3.147,3.147,0,0,1-.522,1.89,2.946,2.946,0,0,1-1.525,1.048,7.954,7.954,0,0,1-2.452.329ZM158.58,0V-.351h5.679V0Zm1.98-.189V-13.257h1.71V-.189Zm8.37.279a2.229,2.229,0,0,1-1.219-.284,1.632,1.632,0,0,1-.635-.765,3.609,3.609,0,0,1-.247-1.08q-.05-.6-.059-1.238T166.7-4.514a3.525,3.525,0,0,0-.279-1.08,1.679,1.679,0,0,0-.689-.765,2.527,2.527,0,0,0-1.3-.283h-2.61v-.189h2.97a4.9,4.9,0,0,1,2.048.356,2.716,2.716,0,0,1,1.147.936,3.468,3.468,0,0,1,.522,1.273,8.077,8.077,0,0,1,.148,1.391q.014.7.045,1.278a2.519,2.519,0,0,0,.2.932.62.62,0,0,0,.617.351,2,2,0,0,0,.5-.059,2.068,2.068,0,0,0,.405-.148l.126.333a2.317,2.317,0,0,1-.648.2A5.3,5.3,0,0,1,168.93.09ZM188.667-13.5v.351h-1.62v12.8h1.62V0h-5.13V-.351h1.8V-6.48h-5.931V-.351H181.2V0h-5.13V-.351h1.62v-12.8h-1.62V-13.5h5.13v.351h-1.791V-6.84h5.931v-6.309h-1.8V-13.5Zm4.446,9.279v-.351h5.832v.351Zm3.4-9.54,4.644,13.41h1.4V0h-5.22V-.351h1.845L195.651-11.3,191.835-.351h1.908V0h-3.96V-.351h1.647l4.716-13.41ZM203.679,0V-.351h1.62v-12.8h-1.62V-13.5h9.6v3.69h-.351a5.016,5.016,0,0,0-.274-1.719,2.4,2.4,0,0,0-.9-1.188,2.906,2.906,0,0,0-1.678-.432h-3.06v12.8h2.871a3.566,3.566,0,0,0,1.935-.45,2.43,2.43,0,0,0,.994-1.278,5.931,5.931,0,0,0,.293-1.971h.351V0Zm6.192-5.013a1.939,1.939,0,0,0-.234-1A1.494,1.494,0,0,0,209-6.606a2.035,2.035,0,0,0-.913-.2h-1.5v-.351h1.5a2.206,2.206,0,0,0,.913-.18,1.413,1.413,0,0,0,.635-.558,1.841,1.841,0,0,0,.234-.981h.351v3.861Zm12.393-.315h4.869v.4h-1.089V-2.97a6.937,6.937,0,0,1-.594.963,5.67,5.67,0,0,1-.986,1.039,5.1,5.1,0,0,1-1.431.824A5.3,5.3,0,0,1,221.1.18a5.5,5.5,0,0,1-3.182-.9,5.606,5.606,0,0,1-1.989-2.461,8.9,8.9,0,0,1-.68-3.573,8.432,8.432,0,0,1,.437-2.767,6.626,6.626,0,0,1,1.247-2.2,5.606,5.606,0,0,1,1.935-1.449,5.939,5.939,0,0,1,2.493-.513,4.747,4.747,0,0,1,1.706.311,4.529,4.529,0,0,1,1.426.859l.945-.99h.315v3.69h-.36a3.461,3.461,0,0,0-.36-1.436,3.45,3.45,0,0,0-.859-1.085,3.856,3.856,0,0,0-1.215-.688,4.249,4.249,0,0,0-1.418-.238,3.447,3.447,0,0,0-1.98.549,4.04,4.04,0,0,0-1.3,1.48,7.455,7.455,0,0,0-.72,2.092,12.507,12.507,0,0,0-.225,2.385,17.068,17.068,0,0,0,.167,2.4,7.916,7.916,0,0,0,.585,2.115,3.739,3.739,0,0,0,1.157,1.5A3.032,3.032,0,0,0,221.1-.18a3.289,3.289,0,0,0,1.4-.261,2.9,2.9,0,0,0,.9-.626,3.223,3.223,0,0,0,.518-.7q.176-.338.247-.481V-4.932h-1.9Zm18.45-8.172v.351h-1.62v12.8h1.62V0h-5.13V-.351h1.8V-6.48h-5.931V-.351h1.791V0h-5.13V-.351h1.62v-12.8h-1.62V-13.5h5.13v.351h-1.791V-6.84h5.931v-6.309h-1.8V-13.5ZM241.83,0V-.351h1.62v-12.8h-1.62V-13.5h9.6v3.69h-.351a5.016,5.016,0,0,0-.274-1.719,2.4,2.4,0,0,0-.9-1.188,2.906,2.906,0,0,0-1.678-.432h-3.06v12.8h2.871a3.566,3.566,0,0,0,1.935-.45,2.43,2.43,0,0,0,.994-1.278,5.931,5.931,0,0,0,.293-1.971h.351V0Zm6.192-5.013a1.939,1.939,0,0,0-.234-1,1.494,1.494,0,0,0-.635-.594,2.035,2.035,0,0,0-.913-.2h-1.5v-.351h1.5a2.206,2.206,0,0,0,.913-.18,1.413,1.413,0,0,0,.635-.558,1.841,1.841,0,0,0,.234-.981h.351v3.861Zm7.155-8.487V-.351H257.3V0h-4.338V-.351h1.845v-12.8h-1.845V-13.5Zm10.6,0v.351h-1.9V.18h-.486L254.916-13.5h2.07L263.52-2.781V-13.149h-2.079V-13.5Z" transform="translate(-9283 7166)" fill="#111"/>
    <path id="Path_39" data-name="Path 39" d="M8.489-9.061,5.07,0H3.705L.286-9.061H1.547L4.394-1.248,7.241-9.061Zm2.483,0V0H9.789V-9.061ZM15.86.091a3.876,3.876,0,0,1-1.606-.319,2.675,2.675,0,0,1-1.112-.884,2.265,2.265,0,0,1-.416-1.306h1.261a1.66,1.66,0,0,0,.526,1.072A1.89,1.89,0,0,0,15.86-.91a1.966,1.966,0,0,0,1.333-.423,1.371,1.371,0,0,0,.487-1.085,1.232,1.232,0,0,0-.286-.845,1.827,1.827,0,0,0-.715-.494,11.172,11.172,0,0,0-1.157-.364,10.189,10.189,0,0,1-1.436-.468,2.313,2.313,0,0,1-.923-.735,2.158,2.158,0,0,1-.384-1.345,2.331,2.331,0,0,1,.377-1.313,2.456,2.456,0,0,1,1.059-.884,3.73,3.73,0,0,1,1.567-.312,3.281,3.281,0,0,1,2.086.637,2.353,2.353,0,0,1,.917,1.69h-1.3a1.4,1.4,0,0,0-.546-.917,1.94,1.94,0,0,0-1.274-.4,1.846,1.846,0,0,0-1.209.384,1.309,1.309,0,0,0-.468,1.073,1.162,1.162,0,0,0,.28.806,1.8,1.8,0,0,0,.689.475q.409.162,1.151.371a10.806,10.806,0,0,1,1.443.488,2.407,2.407,0,0,1,.936.741,2.155,2.155,0,0,1,.39,1.359,2.386,2.386,0,0,1-.351,1.248,2.58,2.58,0,0,1-1.04.949A3.432,3.432,0,0,1,15.86.091Zm5.915-9.152v5.733a2.426,2.426,0,0,0,.591,1.794,2.237,2.237,0,0,0,1.645.585,2.219,2.219,0,0,0,1.632-.585,2.426,2.426,0,0,0,.591-1.794V-9.061h1.183v5.72a3.7,3.7,0,0,1-.455,1.9A2.856,2.856,0,0,1,25.734-.286,3.909,3.909,0,0,1,24,.091a3.909,3.909,0,0,1-1.736-.377,2.817,2.817,0,0,1-1.222-1.151,3.742,3.742,0,0,1-.448-1.9v-5.72ZM34.749-2.015H30.8L30.069,0H28.821L32.1-9.009h1.365L36.725,0H35.477Zm-.338-.962L32.773-7.553,31.135-2.977ZM39.338-.962H42.51V0H38.155V-9.061h1.183ZM52.6-2.015H48.646L47.918,0H46.67l3.276-9.009h1.365L54.574,0H53.326Zm-.338-.962L50.622-7.553,48.984-2.977ZM60.775,0,58.617-3.705h-1.43V0H56V-9.061h2.925a3.883,3.883,0,0,1,1.736.351,2.444,2.444,0,0,1,1.06.949A2.646,2.646,0,0,1,62.075-6.4a2.667,2.667,0,0,1-.539,1.651,2.637,2.637,0,0,1-1.618.949L62.192,0ZM57.187-4.654h1.742a1.976,1.976,0,0,0,1.443-.474A1.7,1.7,0,0,0,60.853-6.4a1.622,1.622,0,0,0-.474-1.248,2.065,2.065,0,0,0-1.45-.442H57.187Zm12.3-4.407V-8.1h-2.47V0H65.832V-8.1H63.349v-.962Zm2.639,0V0H70.941V-9.061ZM77.012.091a3.876,3.876,0,0,1-1.605-.319,2.675,2.675,0,0,1-1.112-.884,2.265,2.265,0,0,1-.416-1.306H75.14a1.66,1.66,0,0,0,.527,1.072,1.89,1.89,0,0,0,1.345.436,1.966,1.966,0,0,0,1.332-.423,1.371,1.371,0,0,0,.488-1.085,1.232,1.232,0,0,0-.286-.845,1.827,1.827,0,0,0-.715-.494,11.172,11.172,0,0,0-1.157-.364,10.189,10.189,0,0,1-1.437-.468,2.313,2.313,0,0,1-.923-.735,2.158,2.158,0,0,1-.383-1.345,2.331,2.331,0,0,1,.377-1.313,2.456,2.456,0,0,1,1.06-.884,3.73,3.73,0,0,1,1.566-.312,3.281,3.281,0,0,1,2.087.637,2.353,2.353,0,0,1,.916,1.69h-1.3a1.4,1.4,0,0,0-.546-.917,1.94,1.94,0,0,0-1.274-.4,1.846,1.846,0,0,0-1.209.384,1.309,1.309,0,0,0-.468,1.073,1.162,1.162,0,0,0,.28.806,1.8,1.8,0,0,0,.689.475q.41.162,1.151.371a10.806,10.806,0,0,1,1.443.488,2.407,2.407,0,0,1,.936.741,2.155,2.155,0,0,1,.39,1.359,2.385,2.385,0,0,1-.351,1.248,2.58,2.58,0,0,1-1.04.949A3.432,3.432,0,0,1,77.012.091ZM87.347-9.061V-8.1h-2.47V0H83.694V-8.1H81.211v-.962Z" transform="translate(-9283 7202)" fill="#111"/>
    <path id="Path_40" data-name="Path 40" d="M0,0H50" transform="translate(-9282.5 7179.958)" fill="none" stroke="#111" stroke-width="1"/>
  </g>
</svg>
