<?xml version="1.0" standalone="no"?>
<!DOCTYPE svg PUBLIC "-//W3C//DTD SVG 20010904//EN"
 "http://www.w3.org/TR/2001/REC-SVG-20010904/DTD/svg10.dtd">
<svg version="1.0" xmlns="http://www.w3.org/2000/svg"
 width="1393.000000pt" height="1393.000000pt" viewBox="0 0 1393.000000 1393.000000"
 preserveAspectRatio="xMidYMid meet">
<metadata>
Created by potrace 1.14, written by Peter Selinger 2001-2017
</metadata>
<g transform="translate(0.000000,1393.000000) scale(0.100000,-0.100000)"
fill="#000000" stroke="none">
<path d="M0 12427 l0 -1332 100 0 c55 0 100 2 101 5 1 3 2 556 3 1230 l1 1225
1180 2 c649 1 1203 2 1231 2 l51 1 -1 100 -1 100 -1332 0 -1333 0 0 -1333z"/>
<path d="M4720 10328 c0 -43 0 -81 0 -85 0 -5 167 -9 370 -9 204 -1 372 -3
375 -5 3 -4 -60 -296 -105 -484 -6 -27 -14 -61 -16 -75 -3 -14 -9 -41 -14 -60
-5 -19 -11 -46 -14 -60 -5 -26 -95 -427 -122 -540 -16 -71 -17 -73 -68 -300
-19 -85 -58 -254 -85 -375 -28 -121 -55 -242 -61 -270 -7 -27 -14 -61 -16 -75
-3 -14 -7 -33 -10 -42 -3 -9 -6 -25 -9 -35 -2 -10 -15 -67 -29 -128 -14 -60
-27 -121 -30 -135 -3 -14 -19 -86 -36 -160 -17 -74 -34 -146 -36 -160 -3 -13
-14 -63 -25 -110 -27 -112 -69 -298 -75 -330 -4 -21 -15 -69 -29 -130 -2 -8
-24 -107 -50 -220 -25 -113 -54 -241 -65 -285 -10 -44 -37 -161 -59 -260 -22
-99 -65 -289 -95 -421 -30 -133 -57 -252 -60 -265 -2 -13 -17 -76 -31 -139
-31 -135 -25 -107 -68 -300 -19 -85 -49 -218 -67 -295 -18 -77 -33 -147 -35
-155 -2 -8 -13 -58 -25 -110 -12 -52 -24 -106 -26 -120 -3 -14 -11 -50 -19
-81 -15 -58 -23 -96 -24 -116 -1 -10 -87 -13 -396 -13 l-395 0 -1 -32 c-1 -55
2 -133 7 -137 9 -9 2356 -6 2362 3 4 8 7 114 3 156 -1 6 -133 10 -377 10 -353
0 -375 1 -370 18 6 20 33 140 40 173 2 13 13 62 25 109 22 93 41 174 47 205 3
16 139 622 159 705 25 109 77 341 81 360 3 14 9 41 14 60 5 19 11 46 14 60 3
14 7 34 10 45 11 48 25 112 30 135 3 14 8 36 11 50 3 14 8 36 11 49 3 12 12
53 20 90 9 36 17 73 19 81 5 22 124 552 130 575 11 44 54 241 57 260 3 20 12
20 1432 20 l1428 0 -5 -35 c-8 -50 -16 -87 -32 -150 -8 -30 -17 -68 -20 -85
-3 -16 -7 -34 -9 -40 -1 -5 -6 -26 -10 -45 -4 -19 -52 -231 -107 -472 -54
-240 -100 -447 -103 -460 -3 -12 -21 -95 -41 -183 -21 -88 -43 -187 -50 -220
-8 -33 -44 -190 -80 -350 -37 -159 -68 -299 -71 -310 -2 -11 -6 -29 -8 -40 -2
-11 -23 -101 -45 -200 -23 -99 -43 -189 -45 -200 -2 -11 -9 -38 -14 -60 -6
-22 -14 -56 -17 -75 -13 -77 29 -70 -410 -70 l-394 0 0 -85 c0 -73 2 -85 17
-86 23 -1 2311 -1 2337 0 18 1 20 8 21 86 l1 85 -373 0 c-244 0 -374 3 -374
10 0 11 86 398 124 560 14 58 27 116 29 130 3 14 13 57 22 95 9 39 19 81 21
95 3 14 14 66 26 115 11 50 27 119 35 155 8 36 16 72 18 80 11 46 57 249 61
270 3 14 7 33 10 42 3 9 7 25 9 35 14 69 141 635 155 688 9 39 98 427 105 462
2 10 20 90 40 178 20 88 39 170 41 182 6 32 132 588 149 658 8 33 35 152 60
265 73 322 195 861 230 1015 14 61 27 120 30 133 3 12 7 32 10 45 2 12 25 112
50 222 26 110 48 207 50 215 1 8 33 147 69 308 36 161 66 293 66 295 0 1 178
1 395 1 l396 -1 -3 86 -3 86 -1175 1 c-646 0 -1180 -2 -1186 -4 -8 -2 -12 -34
-12 -86 l-1 -84 372 1 c243 0 372 -3 374 -10 2 -6 -15 -91 -37 -189 -77 -338
-141 -619 -146 -644 -3 -14 -18 -82 -34 -152 -16 -70 -31 -137 -34 -150 -2
-13 -25 -112 -50 -221 -25 -109 -48 -209 -50 -223 -3 -13 -7 -32 -10 -42 -3
-9 -8 -28 -10 -42 -3 -14 -15 -65 -27 -115 -11 -49 -23 -101 -25 -115 -3 -14
-18 -81 -34 -150 -16 -69 -31 -136 -34 -150 -3 -14 -21 -95 -41 -180 -19 -85
-63 -276 -96 -424 -33 -148 -62 -272 -64 -275 -4 -8 -2842 -8 -2850 0 -3 4 12
85 34 180 22 96 54 235 71 309 16 74 48 216 71 315 22 99 42 189 45 200 2 11
31 139 65 285 71 310 63 276 84 370 22 99 21 95 39 171 8 37 17 78 20 90 3 13
7 33 10 44 2 11 10 43 16 70 6 28 14 61 16 75 3 14 7 33 10 42 3 10 7 28 10
40 9 49 13 70 18 86 3 9 7 28 10 42 7 37 74 332 97 430 12 47 23 94 25 105 2
11 14 63 26 115 12 52 21 98 20 103 -3 9 -30 8 411 9 207 0 377 4 378 7 4 22
3 161 -1 162 -3 1 -537 2 -1187 3 l-1183 1 0 -77z"/>
<path d="M13725 2851 c-3 -2 -5 -556 -5 -1231 l0 -1227 -1202 -1 c-662 0
-1216 -1 -1233 -1 l-30 -1 1 -95 c0 -52 3 -98 7 -101 11 -11 2656 -10 2660 1
1 6 2 606 2 1335 l-1 1325 -98 0 c-53 0 -99 -1 -101 -4z"/>
</g>
</svg>
